PathFileType	4	(X/Y/Z)	C:\Users\italobelli\Desktop\GitHub\PTbot_officialCBL\Personal_Results\ABD03_noisy2.trc
DataRate	CameraRate	NumFrames	NumMarkers	Units	OrigDataRate	OrigDataStartFrame	OrigNumFrames
106.533333	106.533333	30	9	m	106.533333	201	800
Frame#	Time		gu		centelbow		EpL		centpxt8		centijc7		ij		ts		aa		ai
			X1	Y1	Z1	X2	Y2	Z2	X3	Y3	Z3	X4	Y4	Z4	X5	Y5	Z5	X6	Y6	Z6	X7	Y7	Z7	X8	Y8	Z8	X9	Y9	Z9

201	1.8773	-0.1051	0.05892	0.12452	-0.17031	0.11513	0.35789	-0.18636	0.13788	0.34163	-0.046816	-0.15316	-0.008669	-0.046816	0.031938	-0.008669	0	0	0	-0.1251	-0.0079814	0.029064	-0.14413	0.07213	0.11527	-0.12857	-0.08782	0.10956
202	1.8867	-0.10528	0.059137	0.1243	-0.17092	0.11723	0.35721	-0.18688	0.13989	0.34074	-0.046816	-0.15316	-0.008669	-0.046816	0.031938	-0.008669	0	0	0	-0.12521	-0.0081145	0.029159	-0.14436	0.072335	0.11503	-0.12876	-0.087632	0.10997
203	1.8961	-0.10545	0.059351	0.12409	-0.17151	0.11933	0.35652	-0.18739	0.14189	0.33983	-0.046816	-0.15316	-0.008669	-0.046816	0.031938	-0.008669	0	0	0	-0.12531	-0.0082466	0.029255	-0.14458	0.072539	0.11479	-0.12895	-0.087442	0.11037
204	1.9055	-0.10562	0.059563	0.12387	-0.17208	0.12142	0.35582	-0.18789	0.14388	0.33892	-0.046816	-0.15316	-0.008669	-0.046816	0.031938	-0.008669	0	0	0	-0.12542	-0.0083779	0.029353	-0.1448	0.072742	0.11456	-0.12914	-0.087251	0.11078
205	1.9149	-0.10578	0.059772	0.12366	-0.17264	0.1235	0.35511	-0.18837	0.14586	0.33801	-0.046816	-0.15316	-0.008669	-0.046816	0.031938	-0.008669	0	0	0	-0.12553	-0.0085082	0.029452	-0.14502	0.072945	0.11432	-0.12933	-0.08706	0.11119
206	1.9243	-0.10594	0.059979	0.12344	-0.17318	0.12558	0.35438	-0.18884	0.14784	0.33708	-0.046816	-0.15316	-0.008669	-0.046816	0.031938	-0.008669	0	0	0	-0.12563	-0.0086377	0.029552	-0.14523	0.073146	0.11409	-0.12952	-0.086868	0.1116
207	1.9337	-0.10608	0.060183	0.12323	-0.1737	0.12765	0.35365	-0.18929	0.1498	0.33615	-0.046816	-0.15316	-0.008669	-0.046816	0.031938	-0.008669	0	0	0	-0.12574	-0.0087663	0.029653	-0.14544	0.073347	0.11385	-0.12971	-0.086675	0.11201
208	1.9431	-0.10622	0.060385	0.12302	-0.1742	0.12972	0.35291	-0.18973	0.15176	0.33522	-0.046816	-0.15316	-0.008669	-0.046816	0.031938	-0.008669	0	0	0	-0.12585	-0.0088941	0.029756	-0.14565	0.073547	0.11362	-0.1299	-0.086481	0.11241
209	1.9524	-0.10635	0.060584	0.12281	-0.17467	0.13178	0.35216	-0.19015	0.15371	0.33428	-0.046816	-0.15316	-0.008669	-0.046816	0.031938	-0.008669	0	0	0	-0.12595	-0.0090211	0.02986	-0.14585	0.073745	0.11338	-0.13008	-0.086287	0.11283
210	1.9618	-0.10648	0.060781	0.1226	-0.17513	0.13383	0.35139	-0.19054	0.15565	0.33333	-0.046816	-0.15316	-0.008669	-0.046816	0.031938	-0.008669	0	0	0	-0.12606	-0.0091473	0.029966	-0.14604	0.073943	0.11315	-0.13027	-0.086093	0.11324
211	1.9712	-0.10659	0.060975	0.12239	-0.17556	0.13588	0.35062	-0.19092	0.15758	0.33238	-0.046816	-0.15316	-0.008669	-0.046816	0.031938	-0.008669	0	0	0	-0.12616	-0.0092728	0.030073	-0.14623	0.07414	0.11292	-0.13045	-0.085898	0.11365
212	1.9806	-0.1067	0.061167	0.12218	-0.17596	0.13792	0.34984	-0.19128	0.1595	0.33142	-0.046816	-0.15316	-0.008669	-0.046816	0.031938	-0.008669	0	0	0	-0.12627	-0.0093975	0.030181	-0.14641	0.074335	0.11269	-0.13063	-0.085703	0.11406
213	1.99	-0.10679	0.061355	0.12197	-0.17633	0.13995	0.34905	-0.19162	0.16141	0.33046	-0.046816	-0.15316	-0.008669	-0.046816	0.031938	-0.008669	0	0	0	-0.12637	-0.0095215	0.030291	-0.14658	0.07453	0.11246	-0.13081	-0.085508	0.11448
214	1.9994	-0.10687	0.061542	0.12176	-0.17668	0.14198	0.34824	-0.19193	0.16331	0.32949	-0.046816	-0.15316	-0.008669	-0.046816	0.031938	-0.008669	0	0	0	-0.12647	-0.0096448	0.030403	-0.14675	0.074723	0.11224	-0.13099	-0.085313	0.11489
215	2.0088	-0.10695	0.061728	0.12156	-0.177	0.14401	0.34743	-0.19222	0.16522	0.32852	-0.046816	-0.15316	-0.008669	-0.046816	0.031938	-0.008669	0	0	0	-0.12658	-0.0097678	0.030516	-0.14691	0.074917	0.11201	-0.13117	-0.085115	0.11531
216	2.0181	-0.10703	0.061917	0.12135	-0.1773	0.14605	0.34659	-0.19249	0.16714	0.32752	-0.046816	-0.15316	-0.008669	-0.046816	0.031938	-0.008669	0	0	0	-0.12668	-0.0098911	0.030634	-0.14708	0.075112	0.11177	-0.13135	-0.084911	0.11573
217	2.0275	-0.10711	0.062108	0.12114	-0.17757	0.14812	0.34573	-0.19274	0.16907	0.32651	-0.046816	-0.15316	-0.008669	-0.046816	0.031938	-0.008669	0	0	0	-0.12678	-0.010014	0.030756	-0.14725	0.075309	0.11154	-0.13154	-0.0847	0.11616
218	2.0369	-0.10719	0.062301	0.12094	-0.17783	0.1502	0.34485	-0.19298	0.17101	0.32547	-0.046816	-0.15316	-0.008669	-0.046816	0.031938	-0.008669	0	0	0	-0.12689	-0.010138	0.030881	-0.14742	0.075507	0.1113	-0.13173	-0.084484	0.11658
219	2.0463	-0.10727	0.062497	0.12073	-0.17806	0.1523	0.34396	-0.19319	0.17297	0.32442	-0.046816	-0.15316	-0.008669	-0.046816	0.031938	-0.008669	0	0	0	-0.12699	-0.010262	0.031009	-0.1476	0.075707	0.11105	-0.13192	-0.084263	0.11701
220	2.0557	-0.10735	0.062695	0.12052	-0.17827	0.15441	0.34304	-0.19338	0.17493	0.32335	-0.046816	-0.15316	-0.008669	-0.046816	0.031938	-0.008669	0	0	0	-0.1271	-0.010385	0.031141	-0.14778	0.075908	0.11081	-0.13212	-0.084035	0.11744
221	2.0651	-0.10743	0.062894	0.12032	-0.17846	0.15653	0.34211	-0.19355	0.17691	0.32226	-0.046816	-0.15316	-0.008669	-0.046816	0.031938	-0.008669	0	0	0	-0.1272	-0.010509	0.031275	-0.14796	0.076109	0.11056	-0.13232	-0.083803	0.11788
222	2.0745	-0.10751	0.063094	0.12011	-0.17863	0.15866	0.34116	-0.1937	0.17889	0.32116	-0.046816	-0.15316	-0.008669	-0.046816	0.031938	-0.008669	0	0	0	-0.12731	-0.010633	0.031413	-0.14814	0.076312	0.11031	-0.13252	-0.083567	0.11832
223	2.0839	-0.1076	0.063295	0.11991	-0.17877	0.1608	0.34019	-0.19384	0.18087	0.32005	-0.046816	-0.15316	-0.008669	-0.046816	0.031938	-0.008669	0	0	0	-0.12742	-0.010757	0.031554	-0.14832	0.076515	0.11005	-0.13273	-0.083325	0.11875
224	2.0932	-0.10768	0.063498	0.1197	-0.1789	0.16294	0.33921	-0.19395	0.18286	0.31891	-0.046816	-0.15316	-0.008669	-0.046816	0.031938	-0.008669	0	0	0	-0.12753	-0.01088	0.031698	-0.14851	0.076719	0.1098	-0.13293	-0.083079	0.11919
225	2.1026	-0.10776	0.063701	0.1195	-0.17901	0.16509	0.33821	-0.19405	0.18486	0.31777	-0.046816	-0.15316	-0.008669	-0.046816	0.031938	-0.008669	0	0	0	-0.12763	-0.011004	0.031844	-0.14869	0.076923	0.10954	-0.13314	-0.08283	0.11964
226	2.112	-0.10784	0.063904	0.11929	-0.17909	0.16725	0.3372	-0.19412	0.18685	0.31661	-0.046816	-0.15316	-0.008669	-0.046816	0.031938	-0.008669	0	0	0	-0.12774	-0.011127	0.031993	-0.14888	0.077128	0.10928	-0.13335	-0.082576	0.12008
227	2.1214	-0.10791	0.064108	0.11909	-0.17916	0.16941	0.33618	-0.19418	0.18885	0.31544	-0.046816	-0.15316	-0.008669	-0.046816	0.031938	-0.008669	0	0	0	-0.12785	-0.01125	0.032145	-0.14907	0.077332	0.10902	-0.13357	-0.08232	0.12052
228	2.1308	-0.10799	0.064311	0.11888	-0.1792	0.17157	0.33514	-0.19422	0.19085	0.31426	-0.046816	-0.15316	-0.008669	-0.046816	0.031938	-0.008669	0	0	0	-0.12796	-0.011373	0.032299	-0.14926	0.077537	0.10876	-0.13378	-0.082059	0.12097
229	2.1402	-0.10807	0.064515	0.11868	-0.17923	0.17373	0.33408	-0.19424	0.19284	0.31307	-0.046816	-0.15316	-0.008669	-0.046816	0.031938	-0.008669	0	0	0	-0.12807	-0.011495	0.032455	-0.14944	0.077741	0.1085	-0.134	-0.081796	0.12141
230	2.1496	-0.10815	0.064717	0.11848	-0.17923	0.17588	0.33302	-0.19424	0.19483	0.31186	-0.046816	-0.15316	-0.008669	-0.046816	0.031938	-0.008669	0	0	0	-0.12818	-0.011617	0.032613	-0.14963	0.077945	0.10824	-0.13422	-0.08153	0.12186
